solid OpenSCAD_Model
  facet normal 0 -1 0
    outer loop
      vertex 4.25 0 0
      vertex 0 0 -10
      vertex 15 0 -10
    endloop
  endfacet
  facet normal 0 -1 0
    outer loop
      vertex 0 0 10
      vertex 0 0 -10
      vertex 4.25 0 0
    endloop
  endfacet
  facet normal 0 -1 0
    outer loop
      vertex 0 0 10
      vertex 4.25 0 0
      vertex 4.31009 0 0.571757
    endloop
  endfacet
  facet normal 0 -1 0
    outer loop
      vertex 9.51225 0 1.11853
      vertex 9.68991 0 0.571757
      vertex 15 0 -10
    endloop
  endfacet
  facet normal 0 -1 0
    outer loop
      vertex 0 0 10
      vertex 4.31009 0 0.571757
      vertex 4.48775 0 1.11853
    endloop
  endfacet
  facet normal 0 -1 0
    outer loop
      vertex 0 0 10
      vertex 4.48775 0 1.11853
      vertex 4.7752 0 1.61641
    endloop
  endfacet
  facet normal 0 -1 0
    outer loop
      vertex 0 0 10
      vertex 4.7752 0 1.61641
      vertex 5.15989 0 2.04365
    endloop
  endfacet
  facet normal 0 -1 0
    outer loop
      vertex 0 0 10
      vertex 5.15989 0 2.04365
      vertex 5.625 0 2.38157
    endloop
  endfacet
  facet normal 0 -1 0
    outer loop
      vertex 15 0 10
      vertex 0 0 10
      vertex 6.1502 0 2.6154
    endloop
  endfacet
  facet normal 0 -1 0
    outer loop
      vertex 15 0 10
      vertex 6.1502 0 2.6154
      vertex 6.71255 0 2.73493
    endloop
  endfacet
  facet normal 0 -1 0
    outer loop
      vertex 15 0 10
      vertex 6.71255 0 2.73493
      vertex 7.28745 0 2.73493
    endloop
  endfacet
  facet normal 0 -1 0
    outer loop
      vertex 15 0 10
      vertex 7.28745 0 2.73493
      vertex 7.8498 0 2.6154
    endloop
  endfacet
  facet normal 0 -1 0
    outer loop
      vertex 15 0 10
      vertex 7.8498 0 2.6154
      vertex 8.375 0 2.38157
    endloop
  endfacet
  facet normal 0 -1 0
    outer loop
      vertex 15 0 10
      vertex 8.375 0 2.38157
      vertex 8.84011 0 2.04365
    endloop
  endfacet
  facet normal 0 -1 0
    outer loop
      vertex 15 0 10
      vertex 8.84011 0 2.04365
      vertex 9.2248 0 1.61641
    endloop
  endfacet
  facet normal 0 -1 0
    outer loop
      vertex 9.68991 0 0.571757
      vertex 9.75 0 0
      vertex 15 0 -10
    endloop
  endfacet
  facet normal 0 -1 0
    outer loop
      vertex 15 0 10
      vertex 9.51225 0 1.11853
      vertex 15 0 -10
    endloop
  endfacet
  facet normal 0 -1 0
    outer loop
      vertex 15 0 10
      vertex 9.2248 0 1.61641
      vertex 9.51225 0 1.11853
    endloop
  endfacet
  facet normal 0 -1 -0
    outer loop
      vertex 5.625 0 2.38157
      vertex 6.1502 0 2.6154
      vertex 0 0 10
    endloop
  endfacet
  facet normal 0 -1 0
    outer loop
      vertex 9.75 0 0
      vertex 4.25 0 0
      vertex 15 0 -10
    endloop
  endfacet
  facet normal -0 -0 -1
    outer loop
      vertex 0 0 -10
      vertex 0 5 -10
      vertex 15 0 -10
    endloop
  endfacet
  facet normal 0 0 -1
    outer loop
      vertex 15 0 -10
      vertex 0 5 -10
      vertex 10 7 -10
    endloop
  endfacet
  facet normal 0 0 -1
    outer loop
      vertex 15 0 -10
      vertex 10 7 -10
      vertex 10 17 -10
    endloop
  endfacet
  facet normal 0 0 -1
    outer loop
      vertex 15 0 -10
      vertex 10 17 -10
      vertex 15 17 -10
    endloop
  endfacet
  facet normal -1 -0 -0
    outer loop
      vertex 0 0 -10
      vertex 0 0 10
      vertex 0 5 -10
    endloop
  endfacet
  facet normal -1 0 0
    outer loop
      vertex 0 5 -10
      vertex 0 0 10
      vertex 0 5 10
    endloop
  endfacet
  facet normal 0 -0 1
    outer loop
      vertex 0 5 10
      vertex 0 0 10
      vertex 15 0 10
    endloop
  endfacet
  facet normal 0 -0 1
    outer loop
      vertex 10 7 10
      vertex 0 5 10
      vertex 15 0 10
    endloop
  endfacet
  facet normal 0 0 1
    outer loop
      vertex 15 17 10
      vertex 10 7 10
      vertex 15 0 10
    endloop
  endfacet
  facet normal 0 -0 1
    outer loop
      vertex 10 17 10
      vertex 10 7 10
      vertex 15 17 10
    endloop
  endfacet
  facet normal 1 0 -0
    outer loop
      vertex 15 0 10
      vertex 15 0 -10
      vertex 15 17 -10
    endloop
  endfacet
  facet normal 1 0 0
    outer loop
      vertex 15 17 10
      vertex 15 0 10
      vertex 15 17 -10
    endloop
  endfacet
  facet normal -0.705162 -0.705162 0.0741154
    outer loop
      vertex 4.31009 0 0.571757
      vertex 4.25 0 0
      vertex 4.79917 -0.5 0.467801
    endloop
  endfacet
  facet normal -0.705162 -0.705162 0.0741157
    outer loop
      vertex 4.79917 -0.5 0.467801
      vertex 4.25 0 0
      vertex 4.75 -0.5 1.11022e-16
    endloop
  endfacet
  facet normal -0.705162 -0.705162 -0.0741154
    outer loop
      vertex 4.75 -0.5 1.11022e-16
      vertex 4.25 0 0
      vertex 4.31009 -1.26956e-16 -0.571757
    endloop
  endfacet
  facet normal 0 1 -2.22045e-16
    outer loop
      vertex 4.25 0 0
      vertex 9.75 0 0
      vertex 4.31009 -1.26956e-16 -0.571757
    endloop
  endfacet
  facet normal 0 1 -2.22045e-16
    outer loop
      vertex 4.31009 -1.26956e-16 -0.571757
      vertex 9.75 0 0
      vertex 9.68991 -1.26956e-16 -0.571757
    endloop
  endfacet
  facet normal 0 1 -2.22045e-16
    outer loop
      vertex 4.31009 -1.26956e-16 -0.571757
      vertex 9.68991 -1.26956e-16 -0.571757
      vertex 9.51225 -2.48363e-16 -1.11853
    endloop
  endfacet
  facet normal -7.81851e-34 1 -2.22045e-16
    outer loop
      vertex 4.31009 -1.26956e-16 -0.571757
      vertex 9.51225 -2.48363e-16 -1.11853
      vertex 9.2248 -3.58915e-16 -1.61641
    endloop
  endfacet
  facet normal 1.93222e-33 1 -2.22045e-16
    outer loop
      vertex 4.31009 -1.26956e-16 -0.571757
      vertex 9.2248 -3.58915e-16 -1.61641
      vertex 8.84011 -4.53781e-16 -2.04365
    endloop
  endfacet
  facet normal -2.48364e-32 1 -2.22045e-16
    outer loop
      vertex 4.31009 -1.26956e-16 -0.571757
      vertex 8.84011 -4.53781e-16 -2.04365
      vertex 8.375 -5.28815e-16 -2.38157
    endloop
  endfacet
  facet normal 1.61644e-32 1 -2.22045e-16
    outer loop
      vertex 4.31009 -1.26956e-16 -0.571757
      vertex 8.375 -5.28815e-16 -2.38157
      vertex 7.8498 -5.80737e-16 -2.6154
    endloop
  endfacet
  facet normal 3.72649e-32 1 -2.22045e-16
    outer loop
      vertex 4.31009 -1.26956e-16 -0.571757
      vertex 7.8498 -5.80737e-16 -2.6154
      vertex 7.28745 -6.07278e-16 -2.73493
    endloop
  endfacet
  facet normal 4.47883e-32 1 -2.22045e-16
    outer loop
      vertex 4.31009 -1.26956e-16 -0.571757
      vertex 7.28745 -6.07278e-16 -2.73493
      vertex 6.71255 -6.07278e-16 -2.73493
    endloop
  endfacet
  facet normal -6.86316e-32 1 -2.22045e-16
    outer loop
      vertex 4.31009 -1.26956e-16 -0.571757
      vertex 6.71255 -6.07278e-16 -2.73493
      vertex 6.1502 -5.80737e-16 -2.6154
    endloop
  endfacet
  facet normal 0 1 -2.22045e-16
    outer loop
      vertex 4.31009 -1.26956e-16 -0.571757
      vertex 6.1502 -5.80737e-16 -2.6154
      vertex 5.625 -5.28815e-16 -2.38157
    endloop
  endfacet
  facet normal 0 1 -2.22045e-16
    outer loop
      vertex 4.31009 -1.26956e-16 -0.571757
      vertex 5.625 -5.28815e-16 -2.38157
      vertex 5.15989 -4.53781e-16 -2.04365
    endloop
  endfacet
  facet normal 0 1 -2.22045e-16
    outer loop
      vertex 4.31009 -1.26956e-16 -0.571757
      vertex 5.15989 -4.53781e-16 -2.04365
      vertex 4.7752 -3.58915e-16 -1.61641
    endloop
  endfacet
  facet normal 0 1 -2.22045e-16
    outer loop
      vertex 4.31009 -1.26956e-16 -0.571757
      vertex 4.7752 -3.58915e-16 -1.61641
      vertex 4.48775 -2.48363e-16 -1.11853
    endloop
  endfacet
  facet normal 0.705162 -0.705162 -0.0741157
    outer loop
      vertex 9.25 -0.5 1.11022e-16
      vertex 9.20083 -0.5 -0.467801
      vertex 9.75 0 0
    endloop
  endfacet
  facet normal 0.705162 -0.705162 0.0741154
    outer loop
      vertex 9.68991 0 0.571757
      vertex 9.25 -0.5 1.11022e-16
      vertex 9.75 0 0
    endloop
  endfacet
  facet normal 0.705162 -0.705162 -0.0741154
    outer loop
      vertex 9.75 0 0
      vertex 9.20083 -0.5 -0.467801
      vertex 9.68991 -1.26956e-16 -0.571757
    endloop
  endfacet
  facet normal 0.705162 -0.705162 0.0741157
    outer loop
      vertex 9.68991 0 0.571757
      vertex 9.20083 -0.5 0.467801
      vertex 9.25 -0.5 1.11022e-16
    endloop
  endfacet
  facet normal 0.674343 -0.705162 0.219107
    outer loop
      vertex 9.51225 0 1.11853
      vertex 9.20083 -0.5 0.467801
      vertex 9.68991 0 0.571757
    endloop
  endfacet
  facet normal 0.674343 -0.705162 0.219108
    outer loop
      vertex 9.51225 0 1.11853
      vertex 9.05548 -0.5 0.915157
      vertex 9.20083 -0.5 0.467801
    endloop
  endfacet
  facet normal 0.614052 -0.705162 0.354523
    outer loop
      vertex 9.2248 0 1.61641
      vertex 9.05548 -0.5 0.915157
      vertex 9.51225 0 1.11853
    endloop
  endfacet
  facet normal 0.614052 -0.705162 0.354523
    outer loop
      vertex 9.2248 0 1.61641
      vertex 8.82029 -0.5 1.32252
      vertex 9.05548 -0.5 0.915157
    endloop
  endfacet
  facet normal 0.526924 -0.705162 0.474445
    outer loop
      vertex 8.84011 0 2.04365
      vertex 8.82029 -0.5 1.32252
      vertex 9.2248 0 1.61641
    endloop
  endfacet
  facet normal 0.526925 -0.705162 0.474445
    outer loop
      vertex 8.84011 0 2.04365
      vertex 8.50554 -0.5 1.67208
      vertex 8.82029 -0.5 1.32252
    endloop
  endfacet
  facet normal 0.416768 -0.705162 0.57363
    outer loop
      vertex 8.84011 0 2.04365
      vertex 8.375 0 2.38157
      vertex 8.50554 -0.5 1.67208
    endloop
  endfacet
  facet normal 0.416766 -0.705162 0.573631
    outer loop
      vertex 8.375 0 2.38157
      vertex 8.125 -0.5 1.94856
      vertex 8.50554 -0.5 1.67208
    endloop
  endfacet
  facet normal 0.288395 -0.705162 0.647746
    outer loop
      vertex 8.375 0 2.38157
      vertex 7.8498 0 2.6154
      vertex 8.125 -0.5 1.94856
    endloop
  endfacet
  facet normal 0.288395 -0.705162 0.647746
    outer loop
      vertex 7.8498 0 2.6154
      vertex 7.69529 -0.5 2.13988
      vertex 8.125 -0.5 1.94856
    endloop
  endfacet
  facet normal 0.147419 -0.705162 0.693552
    outer loop
      vertex 7.8498 0 2.6154
      vertex 7.28745 0 2.73493
      vertex 7.69529 -0.5 2.13988
    endloop
  endfacet
  facet normal 0.147419 -0.705162 0.693552
    outer loop
      vertex 7.28745 0 2.73493
      vertex 7.23519 -0.5 2.23767
      vertex 7.69529 -0.5 2.13988
    endloop
  endfacet
  facet normal 0 -0.705162 0.709046
    outer loop
      vertex 7.28745 0 2.73493
      vertex 6.71255 0 2.73493
      vertex 6.76481 -0.5 2.23767
    endloop
  endfacet
  facet normal 0 -0.705162 0.709046
    outer loop
      vertex 7.23519 -0.5 2.23767
      vertex 7.28745 0 2.73493
      vertex 6.76481 -0.5 2.23767
    endloop
  endfacet
  facet normal -0.147419 -0.705162 0.693552
    outer loop
      vertex 6.71255 0 2.73493
      vertex 6.1502 0 2.6154
      vertex 6.76481 -0.5 2.23767
    endloop
  endfacet
  facet normal -0.147419 -0.705162 0.693552
    outer loop
      vertex 6.76481 -0.5 2.23767
      vertex 6.1502 0 2.6154
      vertex 6.30471 -0.5 2.13988
    endloop
  endfacet
  facet normal -0.288395 -0.705162 0.647746
    outer loop
      vertex 6.1502 0 2.6154
      vertex 5.625 0 2.38157
      vertex 6.30471 -0.5 2.13988
    endloop
  endfacet
  facet normal -0.288395 -0.705162 0.647746
    outer loop
      vertex 6.30471 -0.5 2.13988
      vertex 5.625 0 2.38157
      vertex 5.875 -0.5 1.94856
    endloop
  endfacet
  facet normal -0.416767 -0.705162 0.57363
    outer loop
      vertex 5.625 0 2.38157
      vertex 5.15989 0 2.04365
      vertex 5.875 -0.5 1.94856
    endloop
  endfacet
  facet normal -0.416767 -0.705162 0.573631
    outer loop
      vertex 5.875 -0.5 1.94856
      vertex 5.15989 0 2.04365
      vertex 5.49446 -0.5 1.67208
    endloop
  endfacet
  facet normal -0.526924 -0.705162 0.474445
    outer loop
      vertex 5.15989 0 2.04365
      vertex 4.7752 0 1.61641
      vertex 5.49446 -0.5 1.67208
    endloop
  endfacet
  facet normal -0.526924 -0.705162 0.474444
    outer loop
      vertex 5.49446 -0.5 1.67208
      vertex 4.7752 0 1.61641
      vertex 5.17971 -0.5 1.32252
    endloop
  endfacet
  facet normal -0.614052 -0.705162 0.354523
    outer loop
      vertex 4.7752 0 1.61641
      vertex 4.48775 0 1.11853
      vertex 5.17971 -0.5 1.32252
    endloop
  endfacet
  facet normal -0.614052 -0.705162 0.354522
    outer loop
      vertex 5.17971 -0.5 1.32252
      vertex 4.48775 0 1.11853
      vertex 4.94452 -0.5 0.915157
    endloop
  endfacet
  facet normal -0.674343 -0.705162 0.219107
    outer loop
      vertex 4.48775 0 1.11853
      vertex 4.31009 0 0.571757
      vertex 4.94452 -0.5 0.915157
    endloop
  endfacet
  facet normal -0.674343 -0.705162 0.219108
    outer loop
      vertex 4.94452 -0.5 0.915157
      vertex 4.31009 0 0.571757
      vertex 4.79917 -0.5 0.467801
    endloop
  endfacet
  facet normal 0 1 0
    outer loop
      vertex 10 17 -10
      vertex 10 17 10
      vertex 15 17 -10
    endloop
  endfacet
  facet normal 0 1 0
    outer loop
      vertex 15 17 -10
      vertex 10 17 10
      vertex 15 17 10
    endloop
  endfacet
  facet normal -1 -0 -0
    outer loop
      vertex 10 7 -10
      vertex 10 7 10
      vertex 10 17 -10
    endloop
  endfacet
  facet normal -1 0 0
    outer loop
      vertex 10 17 -10
      vertex 10 7 10
      vertex 10 17 10
    endloop
  endfacet
  facet normal -0.196116 0.980581 0
    outer loop
      vertex 0 5 -10
      vertex 0 5 10
      vertex 10 7 -10
    endloop
  endfacet
  facet normal -0.196116 0.980581 0
    outer loop
      vertex 10 7 -10
      vertex 0 5 10
      vertex 10 7 10
    endloop
  endfacet
  facet normal -0.994522 2.321e-17 0.104529
    outer loop
      vertex 4.75 -4 8.88178e-16
      vertex 4.79917 -4 0.467801
      vertex 4.75 -0.5 1.11022e-16
    endloop
  endfacet
  facet normal -0.994522 2.32102e-17 0.104529
    outer loop
      vertex 4.75 -0.5 1.11022e-16
      vertex 4.79917 -4 0.467801
      vertex 4.79917 -0.5 0.467801
    endloop
  endfacet
  facet normal -0.951056 6.86157e-17 0.309017
    outer loop
      vertex 4.79917 -4 0.467801
      vertex 4.94452 -4 0.915157
      vertex 4.79917 -0.5 0.467801
    endloop
  endfacet
  facet normal -0.951056 6.86167e-17 0.309017
    outer loop
      vertex 4.79917 -0.5 0.467801
      vertex 4.94452 -4 0.915157
      vertex 4.94452 -0.5 0.915157
    endloop
  endfacet
  facet normal -0.994522 -2.321e-17 -0.104529
    outer loop
      vertex 4.75 -4 8.88178e-16
      vertex 4.75 -0.5 1.11022e-16
      vertex 4.79917 -4 -0.467801
    endloop
  endfacet
  facet normal -0.994522 -2.321e-17 -0.104529
    outer loop
      vertex 4.79917 -4 -0.467801
      vertex 4.75 -0.5 1.11022e-16
      vertex 4.79917 -0.5 -0.467801
    endloop
  endfacet
  facet normal -0.705162 -0.705162 -0.0741157
    outer loop
      vertex 4.75 -0.5 1.11022e-16
      vertex 4.31009 -1.26956e-16 -0.571757
      vertex 4.79917 -0.5 -0.467801
    endloop
  endfacet
  facet normal -0.674343 -0.705162 -0.219107
    outer loop
      vertex 4.79917 -0.5 -0.467801
      vertex 4.31009 -1.26956e-16 -0.571757
      vertex 4.48775 -2.48363e-16 -1.11853
    endloop
  endfacet
  facet normal -0.674343 -0.705162 -0.219108
    outer loop
      vertex 4.79917 -0.5 -0.467801
      vertex 4.48775 -2.48363e-16 -1.11853
      vertex 4.94452 -0.5 -0.915157
    endloop
  endfacet
  facet normal -0.614052 -0.705162 -0.354523
    outer loop
      vertex 4.94452 -0.5 -0.915157
      vertex 4.48775 -2.48363e-16 -1.11853
      vertex 4.7752 -3.58915e-16 -1.61641
    endloop
  endfacet
  facet normal -0.614052 -0.705162 -0.354523
    outer loop
      vertex 4.94452 -0.5 -0.915157
      vertex 4.7752 -3.58915e-16 -1.61641
      vertex 5.17971 -0.5 -1.32252
    endloop
  endfacet
  facet normal -0.526924 -0.705162 -0.474445
    outer loop
      vertex 5.17971 -0.5 -1.32252
      vertex 4.7752 -3.58915e-16 -1.61641
      vertex 5.15989 -4.53781e-16 -2.04365
    endloop
  endfacet
  facet normal -0.526925 -0.705162 -0.474445
    outer loop
      vertex 5.17971 -0.5 -1.32252
      vertex 5.15989 -4.53781e-16 -2.04365
      vertex 5.49446 -0.5 -1.67208
    endloop
  endfacet
  facet normal -0.416768 -0.705162 -0.57363
    outer loop
      vertex 5.49446 -0.5 -1.67208
      vertex 5.15989 -4.53781e-16 -2.04365
      vertex 5.625 -5.28815e-16 -2.38157
    endloop
  endfacet
  facet normal -0.416766 -0.705162 -0.573631
    outer loop
      vertex 5.875 -0.5 -1.94856
      vertex 5.49446 -0.5 -1.67208
      vertex 5.625 -5.28815e-16 -2.38157
    endloop
  endfacet
  facet normal -0.288395 -0.705162 -0.647746
    outer loop
      vertex 5.875 -0.5 -1.94856
      vertex 5.625 -5.28815e-16 -2.38157
      vertex 6.1502 -5.80737e-16 -2.6154
    endloop
  endfacet
  facet normal -0.288395 -0.705162 -0.647746
    outer loop
      vertex 6.30471 -0.5 -2.13988
      vertex 5.875 -0.5 -1.94856
      vertex 6.1502 -5.80737e-16 -2.6154
    endloop
  endfacet
  facet normal -0.147419 -0.705162 -0.693552
    outer loop
      vertex 6.30471 -0.5 -2.13988
      vertex 6.1502 -5.80737e-16 -2.6154
      vertex 6.71255 -6.07278e-16 -2.73493
    endloop
  endfacet
  facet normal -0.147419 -0.705162 -0.693552
    outer loop
      vertex 6.76481 -0.5 -2.23767
      vertex 6.30471 -0.5 -2.13988
      vertex 6.71255 -6.07278e-16 -2.73493
    endloop
  endfacet
  facet normal -0 -0.705162 -0.709046
    outer loop
      vertex 6.71255 -6.07278e-16 -2.73493
      vertex 7.28745 -6.07278e-16 -2.73493
      vertex 6.76481 -0.5 -2.23767
    endloop
  endfacet
  facet normal -0 -0.705162 -0.709046
    outer loop
      vertex 6.76481 -0.5 -2.23767
      vertex 7.28745 -6.07278e-16 -2.73493
      vertex 7.23519 -0.5 -2.23767
    endloop
  endfacet
  facet normal 0.147419 -0.705162 -0.693552
    outer loop
      vertex 7.8498 -5.80737e-16 -2.6154
      vertex 7.23519 -0.5 -2.23767
      vertex 7.28745 -6.07278e-16 -2.73493
    endloop
  endfacet
  facet normal 0.147419 -0.705162 -0.693552
    outer loop
      vertex 7.69529 -0.5 -2.13988
      vertex 7.23519 -0.5 -2.23767
      vertex 7.8498 -5.80737e-16 -2.6154
    endloop
  endfacet
  facet normal 0.288395 -0.705162 -0.647746
    outer loop
      vertex 8.375 -5.28815e-16 -2.38157
      vertex 7.69529 -0.5 -2.13988
      vertex 7.8498 -5.80737e-16 -2.6154
    endloop
  endfacet
  facet normal 0.288395 -0.705162 -0.647746
    outer loop
      vertex 8.125 -0.5 -1.94856
      vertex 7.69529 -0.5 -2.13988
      vertex 8.375 -5.28815e-16 -2.38157
    endloop
  endfacet
  facet normal 0.416767 -0.705162 -0.57363
    outer loop
      vertex 8.84011 -4.53781e-16 -2.04365
      vertex 8.125 -0.5 -1.94856
      vertex 8.375 -5.28815e-16 -2.38157
    endloop
  endfacet
  facet normal 0.416767 -0.705162 -0.573631
    outer loop
      vertex 8.50554 -0.5 -1.67208
      vertex 8.125 -0.5 -1.94856
      vertex 8.84011 -4.53781e-16 -2.04365
    endloop
  endfacet
  facet normal 0.526924 -0.705162 -0.474445
    outer loop
      vertex 9.2248 -3.58915e-16 -1.61641
      vertex 8.50554 -0.5 -1.67208
      vertex 8.84011 -4.53781e-16 -2.04365
    endloop
  endfacet
  facet normal 0.526924 -0.705162 -0.474444
    outer loop
      vertex 8.82029 -0.5 -1.32252
      vertex 8.50554 -0.5 -1.67208
      vertex 9.2248 -3.58915e-16 -1.61641
    endloop
  endfacet
  facet normal 0.614052 -0.705162 -0.354523
    outer loop
      vertex 9.51225 -2.48363e-16 -1.11853
      vertex 8.82029 -0.5 -1.32252
      vertex 9.2248 -3.58915e-16 -1.61641
    endloop
  endfacet
  facet normal 0.614052 -0.705162 -0.354522
    outer loop
      vertex 9.05548 -0.5 -0.915157
      vertex 8.82029 -0.5 -1.32252
      vertex 9.51225 -2.48363e-16 -1.11853
    endloop
  endfacet
  facet normal 0.674343 -0.705162 -0.219107
    outer loop
      vertex 9.68991 -1.26956e-16 -0.571757
      vertex 9.05548 -0.5 -0.915157
      vertex 9.51225 -2.48363e-16 -1.11853
    endloop
  endfacet
  facet normal 0.674343 -0.705162 -0.219108
    outer loop
      vertex 9.20083 -0.5 -0.467801
      vertex 9.05548 -0.5 -0.915157
      vertex 9.68991 -1.26956e-16 -0.571757
    endloop
  endfacet
  facet normal 0.994522 -2.32094e-17 -0.104529
    outer loop
      vertex 9.25 -4 8.88178e-16
      vertex 9.20083 -4 -0.467801
      vertex 9.20083 -0.5 -0.467801
    endloop
  endfacet
  facet normal 0.994522 -2.321e-17 -0.104529
    outer loop
      vertex 9.25 -0.5 1.11022e-16
      vertex 9.25 -4 8.88178e-16
      vertex 9.20083 -0.5 -0.467801
    endloop
  endfacet
  facet normal 0.994522 2.321e-17 0.104529
    outer loop
      vertex 9.20083 -0.5 0.467801
      vertex 9.20083 -4 0.467801
      vertex 9.25 -4 8.88178e-16
    endloop
  endfacet
  facet normal 0.994522 2.321e-17 0.104529
    outer loop
      vertex 9.25 -0.5 1.11022e-16
      vertex 9.20083 -0.5 0.467801
      vertex 9.25 -4 8.88178e-16
    endloop
  endfacet
  facet normal 0.951056 -6.86167e-17 -0.309017
    outer loop
      vertex 9.20083 -4 -0.467801
      vertex 9.05548 -4 -0.915157
      vertex 9.05548 -0.5 -0.915157
    endloop
  endfacet
  facet normal 0.951056 -6.86157e-17 -0.309017
    outer loop
      vertex 9.20083 -0.5 -0.467801
      vertex 9.20083 -4 -0.467801
      vertex 9.05548 -0.5 -0.915157
    endloop
  endfacet
  facet normal 0.951056 6.86157e-17 0.309017
    outer loop
      vertex 9.05548 -0.5 0.915157
      vertex 9.05548 -4 0.915157
      vertex 9.20083 -4 0.467801
    endloop
  endfacet
  facet normal 0.951056 6.86157e-17 0.309017
    outer loop
      vertex 9.20083 -0.5 0.467801
      vertex 9.05548 -0.5 0.915157
      vertex 9.20083 -4 0.467801
    endloop
  endfacet
  facet normal 0.866026 1.26882e-16 0.499999
    outer loop
      vertex 8.82029 -0.5 1.32252
      vertex 8.82029 -4 1.32252
      vertex 9.05548 -4 0.915157
    endloop
  endfacet
  facet normal 0.866026 1.11022e-16 0.499999
    outer loop
      vertex 9.05548 -0.5 0.915157
      vertex 8.82029 -0.5 1.32252
      vertex 9.05548 -4 0.915157
    endloop
  endfacet
  facet normal 0.743145 1.69802e-16 0.66913
    outer loop
      vertex 8.50554 -0.5 1.67208
      vertex 8.50554 -4 1.67208
      vertex 8.82029 -4 1.32252
    endloop
  endfacet
  facet normal 0.743145 1.69802e-16 0.66913
    outer loop
      vertex 8.82029 -0.5 1.32252
      vertex 8.50554 -0.5 1.67208
      vertex 8.82029 -4 1.32252
    endloop
  endfacet
  facet normal 0.587785 2.05301e-16 0.809017
    outer loop
      vertex 8.125 -0.5 1.94856
      vertex 8.125 -4 1.94856
      vertex 8.50554 -4 1.67208
    endloop
  endfacet
  facet normal 0.587785 2.05301e-16 0.809017
    outer loop
      vertex 8.50554 -0.5 1.67208
      vertex 8.125 -0.5 1.94856
      vertex 8.50554 -4 1.67208
    endloop
  endfacet
  facet normal 0.406736 2.31826e-16 0.913546
    outer loop
      vertex 7.69529 -0.5 2.13988
      vertex 7.69529 -4 2.13988
      vertex 8.125 -4 1.94856
    endloop
  endfacet
  facet normal 0.406736 2.31826e-16 0.913546
    outer loop
      vertex 8.125 -0.5 1.94856
      vertex 7.69529 -0.5 2.13988
      vertex 8.125 -4 1.94856
    endloop
  endfacet
  facet normal 0.207912 2.4822e-16 0.978148
    outer loop
      vertex 7.23519 -0.5 2.23767
      vertex 7.23519 -4 2.23767
      vertex 7.69529 -4 2.13988
    endloop
  endfacet
  facet normal 0.207912 2.4822e-16 0.978148
    outer loop
      vertex 7.69529 -0.5 2.13988
      vertex 7.23519 -0.5 2.23767
      vertex 7.69529 -4 2.13988
    endloop
  endfacet
  facet normal 0 2.53765e-16 1
    outer loop
      vertex 6.76481 -0.5 2.23767
      vertex 6.76481 -4 2.23767
      vertex 7.23519 -4 2.23767
    endloop
  endfacet
  facet normal -0 2.53765e-16 1
    outer loop
      vertex 7.23519 -0.5 2.23767
      vertex 6.76481 -0.5 2.23767
      vertex 7.23519 -4 2.23767
    endloop
  endfacet
  facet normal -0.207912 2.4822e-16 0.978148
    outer loop
      vertex 6.30471 -0.5 2.13988
      vertex 6.30471 -4 2.13988
      vertex 6.76481 -4 2.23767
    endloop
  endfacet
  facet normal -0.207912 2.4822e-16 0.978148
    outer loop
      vertex 6.76481 -0.5 2.23767
      vertex 6.30471 -0.5 2.13988
      vertex 6.76481 -4 2.23767
    endloop
  endfacet
  facet normal -0.406736 2.31826e-16 0.913546
    outer loop
      vertex 5.875 -0.5 1.94856
      vertex 5.875 -4 1.94856
      vertex 6.30471 -4 2.13988
    endloop
  endfacet
  facet normal -0.406736 2.31826e-16 0.913546
    outer loop
      vertex 6.30471 -0.5 2.13988
      vertex 5.875 -0.5 1.94856
      vertex 6.30471 -4 2.13988
    endloop
  endfacet
  facet normal -0.587785 2.05301e-16 0.809017
    outer loop
      vertex 5.49446 -0.5 1.67208
      vertex 5.49446 -4 1.67208
      vertex 5.875 -4 1.94856
    endloop
  endfacet
  facet normal -0.587785 2.05301e-16 0.809017
    outer loop
      vertex 5.875 -0.5 1.94856
      vertex 5.49446 -0.5 1.67208
      vertex 5.875 -4 1.94856
    endloop
  endfacet
  facet normal -0.743145 1.69802e-16 0.66913
    outer loop
      vertex 5.17971 -4 1.32252
      vertex 5.49446 -4 1.67208
      vertex 5.17971 -0.5 1.32252
    endloop
  endfacet
  facet normal -0.743145 1.67146e-16 0.66913
    outer loop
      vertex 5.17971 -0.5 1.32252
      vertex 5.49446 -4 1.67208
      vertex 5.49446 -0.5 1.67208
    endloop
  endfacet
  facet normal -0.866026 1.11022e-16 0.499999
    outer loop
      vertex 4.94452 -4 0.915157
      vertex 5.17971 -4 1.32252
      vertex 4.94452 -0.5 0.915157
    endloop
  endfacet
  facet normal -0.866026 1.24899e-16 0.499999
    outer loop
      vertex 4.94452 -0.5 0.915157
      vertex 5.17971 -4 1.32252
      vertex 5.17971 -0.5 1.32252
    endloop
  endfacet
  facet normal 4.51604e-15 -1 4.74656e-16
    outer loop
      vertex 4.79917 -4 0.467801
      vertex 4.75 -4 8.88178e-16
      vertex 4.79917 -4 -0.467801
    endloop
  endfacet
  facet normal 6.79977e-16 -1 3.92584e-16
    outer loop
      vertex 5.17971 -4 -1.32252
      vertex 4.79917 -4 0.467801
      vertex 4.94452 -4 -0.915157
    endloop
  endfacet
  facet normal 1.46084e-15 -1 4.74656e-16
    outer loop
      vertex 4.94452 -4 -0.915157
      vertex 4.79917 -4 0.467801
      vertex 4.79917 -4 -0.467801
    endloop
  endfacet
  facet normal 3.60619e-16 -1 3.24702e-16
    outer loop
      vertex 5.49446 -4 -1.67208
      vertex 4.79917 -4 0.467801
      vertex 5.17971 -4 -1.32252
    endloop
  endfacet
  facet normal 1.97373e-16 -1 2.7166e-16
    outer loop
      vertex 5.875 -4 -1.94856
      vertex 4.79917 -4 0.467801
      vertex 5.49446 -4 -1.67208
    endloop
  endfacet
  facet normal 1.02057e-16 -1 2.29223e-16
    outer loop
      vertex 6.30471 -4 -2.13988
      vertex 4.79917 -4 0.467801
      vertex 5.875 -4 -1.94856
    endloop
  endfacet
  facet normal 4.12622e-17 -1 1.94123e-16
    outer loop
      vertex 6.76481 -4 -2.23767
      vertex 4.79917 -4 0.467801
      vertex 6.30471 -4 -2.13988
    endloop
  endfacet
  facet normal 0 -1 1.64145e-16
    outer loop
      vertex 7.23519 -4 -2.23767
      vertex 4.79917 -4 0.467801
      vertex 6.76481 -4 -2.23767
    endloop
  endfacet
  facet normal -2.92852e-17 -1 1.37776e-16
    outer loop
      vertex 7.69529 -4 -2.13988
      vertex 4.79917 -4 0.467801
      vertex 7.23519 -4 -2.23767
    endloop
  endfacet
  facet normal -5.07353e-17 -1 1.13953e-16
    outer loop
      vertex 8.125 -4 -1.94856
      vertex 4.79917 -4 0.467801
      vertex 7.69529 -4 -2.13988
    endloop
  endfacet
  facet normal -6.67636e-17 -1 9.18923e-17
    outer loop
      vertex 8.50554 -4 -1.67208
      vertex 4.79917 -4 0.467801
      vertex 8.125 -4 -1.94856
    endloop
  endfacet
  facet normal -7.88353e-17 -1 7.09835e-17
    outer loop
      vertex 8.82029 -4 -1.32252
      vertex 4.79917 -4 0.467801
      vertex 8.50554 -4 -1.67208
    endloop
  endfacet
  facet normal -8.78557e-17 -1 5.07234e-17
    outer loop
      vertex 9.05548 -4 -0.915157
      vertex 4.79917 -4 0.467801
      vertex 8.82029 -4 -1.32252
    endloop
  endfacet
  facet normal -9.43734e-17 -1 3.06638e-17
    outer loop
      vertex 9.20083 -4 -0.467801
      vertex 4.79917 -4 0.467801
      vertex 9.05548 -4 -0.915157
    endloop
  endfacet
  facet normal -9.86865e-17 -1 1.03724e-17
    outer loop
      vertex 9.25 -4 8.88178e-16
      vertex 4.79917 -4 0.467801
      vertex 9.20083 -4 -0.467801
    endloop
  endfacet
  facet normal 0 -1 9.49312e-16
    outer loop
      vertex 9.20083 -4 0.467801
      vertex 4.79917 -4 0.467801
      vertex 9.25 -4 8.88178e-16
    endloop
  endfacet
  facet normal 0 -1 0
    outer loop
      vertex 9.05548 -4 0.915157
      vertex 4.79917 -4 0.467801
      vertex 9.20083 -4 0.467801
    endloop
  endfacet
  facet normal 0 -1 0
    outer loop
      vertex 8.82029 -4 1.32252
      vertex 4.79917 -4 0.467801
      vertex 9.05548 -4 0.915157
    endloop
  endfacet
  facet normal 0 -1 0
    outer loop
      vertex 8.50554 -4 1.67208
      vertex 4.79917 -4 0.467801
      vertex 8.82029 -4 1.32252
    endloop
  endfacet
  facet normal 0 -1 0
    outer loop
      vertex 8.125 -4 1.94856
      vertex 4.79917 -4 0.467801
      vertex 8.50554 -4 1.67208
    endloop
  endfacet
  facet normal -5.16729e-16 -1 1.16059e-15
    outer loop
      vertex 7.69529 -4 2.13988
      vertex 4.79917 -4 0.467801
      vertex 8.125 -4 1.94856
    endloop
  endfacet
  facet normal 4.12622e-17 -1 1.94123e-16
    outer loop
      vertex 7.23519 -4 2.23767
      vertex 4.79917 -4 0.467801
      vertex 7.69529 -4 2.13988
    endloop
  endfacet
  facet normal 0 -1 2.50916e-16
    outer loop
      vertex 6.76481 -4 2.23767
      vertex 4.79917 -4 0.467801
      vertex 7.23519 -4 2.23767
    endloop
  endfacet
  facet normal -6.98148e-17 -1 3.28453e-16
    outer loop
      vertex 6.30471 -4 2.13988
      vertex 4.79917 -4 0.467801
      vertex 6.76481 -4 2.23767
    endloop
  endfacet
  facet normal 1.5276e-15 -1 -1.10987e-15
    outer loop
      vertex 5.875 -4 1.94856
      vertex 4.79917 -4 0.467801
      vertex 6.30471 -4 2.13988
    endloop
  endfacet
  facet normal -0 -1 0
    outer loop
      vertex 5.49446 -4 1.67208
      vertex 4.79917 -4 0.467801
      vertex 5.875 -4 1.94856
    endloop
  endfacet
  facet normal -0 -1 0
    outer loop
      vertex 5.17971 -4 1.32252
      vertex 4.79917 -4 0.467801
      vertex 5.49446 -4 1.67208
    endloop
  endfacet
  facet normal -0 -1 0
    outer loop
      vertex 4.94452 -4 0.915157
      vertex 4.79917 -4 0.467801
      vertex 5.17971 -4 1.32252
    endloop
  endfacet
  facet normal -0.951056 -6.86157e-17 -0.309017
    outer loop
      vertex 4.79917 -4 -0.467801
      vertex 4.79917 -0.5 -0.467801
      vertex 4.94452 -4 -0.915157
    endloop
  endfacet
  facet normal -0.951056 -6.86157e-17 -0.309017
    outer loop
      vertex 4.94452 -4 -0.915157
      vertex 4.79917 -0.5 -0.467801
      vertex 4.94452 -0.5 -0.915157
    endloop
  endfacet
  facet normal -0.866026 -1.11022e-16 -0.499999
    outer loop
      vertex 4.94452 -4 -0.915157
      vertex 4.94452 -0.5 -0.915157
      vertex 5.17971 -4 -1.32252
    endloop
  endfacet
  facet normal -0.866026 -9.51619e-17 -0.499999
    outer loop
      vertex 5.17971 -4 -1.32252
      vertex 4.94452 -0.5 -0.915157
      vertex 5.17971 -0.5 -1.32252
    endloop
  endfacet
  facet normal -0.743145 -1.27352e-16 -0.66913
    outer loop
      vertex 5.17971 -4 -1.32252
      vertex 5.17971 -0.5 -1.32252
      vertex 5.49446 -4 -1.67208
    endloop
  endfacet
  facet normal -0.743145 -1.27352e-16 -0.66913
    outer loop
      vertex 5.49446 -4 -1.67208
      vertex 5.17971 -0.5 -1.32252
      vertex 5.49446 -0.5 -1.67208
    endloop
  endfacet
  facet normal -0.587785 -1.53975e-16 -0.809017
    outer loop
      vertex 5.49446 -4 -1.67208
      vertex 5.49446 -0.5 -1.67208
      vertex 5.875 -4 -1.94856
    endloop
  endfacet
  facet normal -0.587785 -1.53975e-16 -0.809017
    outer loop
      vertex 5.875 -4 -1.94856
      vertex 5.49446 -0.5 -1.67208
      vertex 5.875 -0.5 -1.94856
    endloop
  endfacet
  facet normal -0.406736 -1.7387e-16 -0.913546
    outer loop
      vertex 5.875 -4 -1.94856
      vertex 5.875 -0.5 -1.94856
      vertex 6.30471 -4 -2.13988
    endloop
  endfacet
  facet normal -0.406736 -1.15913e-16 -0.913546
    outer loop
      vertex 6.30471 -4 -2.13988
      vertex 5.875 -0.5 -1.94856
      vertex 6.30471 -0.5 -2.13988
    endloop
  endfacet
  facet normal -0.207912 -1.2411e-16 -0.978148
    outer loop
      vertex 6.30471 -4 -2.13988
      vertex 6.30471 -0.5 -2.13988
      vertex 6.76481 -4 -2.23767
    endloop
  endfacet
  facet normal -0.207912 -1.2411e-16 -0.978148
    outer loop
      vertex 6.76481 -4 -2.23767
      vertex 6.30471 -0.5 -2.13988
      vertex 6.76481 -0.5 -2.23767
    endloop
  endfacet
  facet normal -0 -1.26883e-16 -1
    outer loop
      vertex 6.76481 -4 -2.23767
      vertex 6.76481 -0.5 -2.23767
      vertex 7.23519 -4 -2.23767
    endloop
  endfacet
  facet normal 0 -1.26883e-16 -1
    outer loop
      vertex 7.23519 -4 -2.23767
      vertex 6.76481 -0.5 -2.23767
      vertex 7.23519 -0.5 -2.23767
    endloop
  endfacet
  facet normal 0.207912 -1.2411e-16 -0.978148
    outer loop
      vertex 7.23519 -4 -2.23767
      vertex 7.23519 -0.5 -2.23767
      vertex 7.69529 -4 -2.13988
    endloop
  endfacet
  facet normal 0.207912 -1.2411e-16 -0.978148
    outer loop
      vertex 7.69529 -4 -2.13988
      vertex 7.23519 -0.5 -2.23767
      vertex 7.69529 -0.5 -2.13988
    endloop
  endfacet
  facet normal 0.406736 -1.15913e-16 -0.913546
    outer loop
      vertex 7.69529 -4 -2.13988
      vertex 7.69529 -0.5 -2.13988
      vertex 8.125 -4 -1.94856
    endloop
  endfacet
  facet normal 0.406736 -1.7387e-16 -0.913546
    outer loop
      vertex 8.125 -4 -1.94856
      vertex 7.69529 -0.5 -2.13988
      vertex 8.125 -0.5 -1.94856
    endloop
  endfacet
  facet normal 0.587785 -1.53975e-16 -0.809017
    outer loop
      vertex 8.125 -4 -1.94856
      vertex 8.125 -0.5 -1.94856
      vertex 8.50554 -4 -1.67208
    endloop
  endfacet
  facet normal 0.587785 -1.53975e-16 -0.809017
    outer loop
      vertex 8.50554 -4 -1.67208
      vertex 8.125 -0.5 -1.94856
      vertex 8.50554 -0.5 -1.67208
    endloop
  endfacet
  facet normal 0.743145 -1.2072e-16 -0.66913
    outer loop
      vertex 8.82029 -4 -1.32252
      vertex 8.50554 -4 -1.67208
      vertex 8.50554 -0.5 -1.67208
    endloop
  endfacet
  facet normal 0.743145 -1.27352e-16 -0.66913
    outer loop
      vertex 8.82029 -0.5 -1.32252
      vertex 8.82029 -4 -1.32252
      vertex 8.50554 -0.5 -1.67208
    endloop
  endfacet
  facet normal 0.866026 -9.71422e-17 -0.499999
    outer loop
      vertex 9.05548 -4 -0.915157
      vertex 8.82029 -4 -1.32252
      vertex 8.82029 -0.5 -1.32252
    endloop
  endfacet
  facet normal 0.866026 -1.11022e-16 -0.499999
    outer loop
      vertex 9.05548 -0.5 -0.915157
      vertex 9.05548 -4 -0.915157
      vertex 8.82029 -0.5 -1.32252
    endloop
  endfacet
endsolid OpenSCAD_Model
